<?xml version="1.0" standalone="no"?><!DOCTYPE svg PUBLIC "-//W3C//DTD SVG 1.1//EN" "http://www.w3.org/Graphics/SVG/1.1/DTD/svg11.dtd"><svg t="1615558661877" class="icon" viewBox="0 0 1344 1024" version="1.1" xmlns="http://www.w3.org/2000/svg" p-id="10254" xmlns:xlink="http://www.w3.org/1999/xlink" width="168" height="128"><defs><style type="text/css"></style></defs><path d="M672 547.456a52.064 52.064 0 1 0 0 104.16 52.064 52.064 0 0 0 0-104.16z m0 24.16A27.936 27.936 0 1 1 672 627.52 27.936 27.936 0 0 1 672 571.616zM599.552 668.224a52.064 52.064 0 1 0 0 104.16 52.064 52.064 0 0 0 0-104.16z m0 24.16a27.936 27.936 0 1 1 0 55.84 27.936 27.936 0 0 1 0-55.84zM720.32 692.384a52.064 52.064 0 1 0 0 104.16 52.064 52.064 0 0 0 0-104.16z m0 24.16a27.936 27.936 0 1 1 0 55.84 27.936 27.936 0 0 1 0-55.84zM575.392 788.992a52.064 52.064 0 1 0 0 104.128 52.064 52.064 0 0 0 0-104.128z m0 24.128a27.936 27.936 0 1 1 0 55.872 27.936 27.936 0 0 1 0-55.872zM454.656 837.28a52.064 52.064 0 1 0 0 104.16 52.064 52.064 0 0 0 0-104.16z m0 24.16a27.936 27.936 0 1 1 0 55.84 27.936 27.936 0 0 1 0-55.84zM623.68 909.76a52.064 52.064 0 1 0 0 104.128 52.064 52.064 0 0 0 0-104.16z m0 24.128a27.936 27.936 0 1 1 0 55.84 27.936 27.936 0 0 1 0-55.84zM889.344 837.28a52.064 52.064 0 1 0 0 104.16 52.064 52.064 0 0 0 0-104.16z m0 24.16a27.936 27.936 0 1 1 0 55.84 27.936 27.936 0 0 1 0-55.84zM720.32 837.28a52.064 52.064 0 1 0-0.064 104.128 52.064 52.064 0 0 0 0.032-104.128z m0 24.16a27.936 27.936 0 1 1-0.064 55.872 27.936 27.936 0 0 1 0.032-55.872zM80.512 80.96C-7.04 168.832-4.864 313.536 84.608 402.88l261.76 261.248a40 40 0 0 0 56.576-0.096l261.152-261.952a40 40 0 0 0-0.064-56.576l-261.728-261.184C314.88-3.04 174.688-6.784 86.592 75.104l-6.08 5.856z m56.64 56.48l5.376-5.12c56.544-50.944 146.56-48.064 203.264 8.576l233.408 232.96-204.672 205.312-233.408-232.96c-56.736-56.64-59.84-146.688-9.024-203.392l5.088-5.376z" fill="#15417F" p-id="10255"></path><path d="M941.696 84.288l-261.728 261.216a40 40 0 0 0-0.064 56.544l261.152 261.952c15.616 15.68 40.96 15.68 56.608 0.096l261.76-261.248c89.44-89.312 91.616-234.016 4.064-321.888-87.616-87.872-232.32-86.016-321.792 3.328z m265.12 53.12l5.088 5.44c50.816 56.64 47.68 146.752-9.024 203.392l-233.44 232.96-204.672-205.312 233.44-232.96c56.704-56.64 146.72-59.552 203.264-8.576l5.344 5.088zM143.68 150.24a40 40 0 0 1 62.368 49.92l-2.752 3.424c-13.984 15.648-14.176 43.84 0.064 63.296l3.264 4.032A40 40 0 1 1 147.2 324.416C103.04 275.328 100.832 198.144 143.68 150.24z" fill="#15417F" p-id="10256"></path></svg>