<?xml version="1.0" standalone="no"?><!DOCTYPE svg PUBLIC "-//W3C//DTD SVG 1.1//EN" "http://www.w3.org/Graphics/SVG/1.1/DTD/svg11.dtd"><svg t="1615631869242" class="icon" viewBox="0 0 1024 1024" version="1.1" xmlns="http://www.w3.org/2000/svg" p-id="4315" xmlns:xlink="http://www.w3.org/1999/xlink" width="128" height="128"><defs><style type="text/css"></style></defs><path d="M718.769231 672.807385m-252.731077 0a252.731077 252.731077 0 1 0 505.462154 0 252.731077 252.731077 0 1 0-505.462154 0Z" fill="#FFD6AB" p-id="4316"></path><path d="M899.426462 70.498462c3.190154 0 5.750154 3.072 6.931692 5.828923l0.630154 1.417846a12.130462 12.130462 0 0 1 0.787692 4.017231V593.132308a14.966154 14.966154 0 0 1-0.787692 4.332307c-1.063385 3.741538-4.135385 7.68-7.68 7.68h-88.064l-5.001846 0.866462a82.628923 82.628923 0 0 0-33.083077 13.115077l-27.963077 18.825846v86.961231l-12.839385-11.421539-74.633846-70.301538-1.811692-3.308308-4.726154-5.435077a85.464615 85.464615 0 0 0-48.758154-28.120615l-5.986462-1.181539H262.734769c-3.426462 0-6.419692-3.938462-7.561846-7.876923a23.394462 23.394462 0 0 1-0.787692-3.308307v-512c0.078769-1.969231 0.551385-3.938462 1.417846-5.71077a8.743385 8.743385 0 0 1 6.931692-5.750153h636.691693z m0-63.921231H262.734769A72.152615 72.152615 0 0 0 197.395692 50.018462a76.8 76.8 0 0 0-7.049846 31.980307v512c0.078769 7.207385 1.181538 14.375385 3.308308 21.267693 8.428308 31.271385 36.627692 53.169231 69.080615 53.68123h328.073846a21.346462 21.346462 0 0 1 12.248616 7.049846c2.244923 3.977846 5.12 7.561846 8.467692 10.633847l76.406154 72.664615 18.510769 16.423385c13.745231 10.397538 31.350154 14.257231 48.206769 10.633846 17.959385-2.875077 34.107077-12.563692 45.056-27.057231a43.716923 43.716923 0 0 0 9.058462-26.190769V670.72a18.077538 18.077538 0 0 1 7.286154-2.875077h82.944a72.861538 72.861538 0 0 0 69.316923-54.193231c2.048-6.931692 3.150769-14.099692 3.150769-21.307077V81.762462c0-11.027692-2.402462-21.937231-7.010461-31.940924a72.152615 72.152615 0 0 0-65.024-43.244307z" fill="#333333" p-id="4317"></path><path d="M724.795077 745.432615l3.623385 3.623385c4.056615 4.844308 8.664615 9.137231 13.784615 12.760615l-17.526154-16.384h0.118154zM726.488615 833.732923h-317.479384l-5.710769 1.181539a80.423385 80.423385 0 0 0-46.276924 28.08123l-4.450461 5.395693-1.614769 3.308307-73.964308 74.436923-2.244923 2.244923-2.048 2.56a8.192 8.192 0 0 1-2.835692 2.363077h-1.10277v-86.252307l-26.584615-18.983385a76.406154 76.406154 0 0 0-31.350154-13.075692l-4.765538-0.827077H121.501538c-3.426462 0-6.301538-3.938462-7.60123-8.546462a13.272615 13.272615 0 0 1 0-2.520615V311.138462c0-1.339077 0.275692-2.638769 0.708923-3.938462l0.630154-1.378462a8.507077 8.507077 0 0 1 6.695384-5.710769h69.198769V236.307692H121.304615c-27.057231 0.393846-51.357538 17.329231-62.109538 43.401846a79.950769 79.950769 0 0 0-6.695385 31.901539v510.936615c0.078769 7.207385 1.102769 14.375385 3.072 21.267693 7.876923 31.507692 34.816 53.602462 65.851077 54.153846h78.848c2.441846 0.393846 4.804923 1.417846 6.892308 2.875077v62.227692c0.078769 9.452308 3.150769 18.668308 8.625231 26.190769 10.397538 14.454154 25.757538 24.142769 42.811077 27.017846 3.347692 0.669538 6.734769 1.063385 10.16123 1.181539a64.708923 64.708923 0 0 0 50.136616-25.009231l76.288-76.288c3.190154-3.072 5.907692-6.695385 8.034461-10.633846a20.086154 20.086154 0 0 1 11.657846-7.010462h311.611077c17.723077-0.236308 34.619077-7.916308 46.867693-21.267692l-46.473846-43.441231-0.393847-0.078769z" fill="#333333" p-id="4318"></path><path d="M519.207385 387.780923c-34.304 0-62.109538-29.144615-62.109539-65.102769s27.805538-65.102769 62.109539-65.102769c34.264615 0 62.070154 29.144615 62.070153 65.102769s-27.805538 65.102769-62.070153 65.102769zM725.582769 387.780923c-34.264615 0-62.109538-29.144615-62.109538-65.102769s27.805538-65.102769 62.109538-65.102769S787.692308 286.72 787.692308 322.678154s-27.805538 65.102769-62.109539 65.102769z" fill="#FF960B" p-id="4319"></path></svg>