<?xml version="1.0" standalone="no"?><!DOCTYPE svg PUBLIC "-//W3C//DTD SVG 1.1//EN" "http://www.w3.org/Graphics/SVG/1.1/DTD/svg11.dtd"><svg t="1615560878983" class="icon" viewBox="0 0 1024 1024" version="1.1" xmlns="http://www.w3.org/2000/svg" p-id="16590" xmlns:xlink="http://www.w3.org/1999/xlink" width="128" height="128"><defs><style type="text/css"></style></defs><path d="M196.9152 159.744c-22.152533 0-40.0384 17.92-40.0384 40.004267v560.4352c0 22.1184 17.92 40.004267 40.004267 40.004266h151.6544c39.492267 0 78.1312 11.707733 111.0016 33.621334l57.5488 38.365866 57.5488-38.365866a200.055467 200.055467 0 0 1 110.967466-33.621334h151.722667c22.1184 0 40.004267-17.92 40.004267-40.004266V199.7824c0-22.1184-17.92-40.004267-40.004267-40.004267h-151.688533c-16.622933 0-41.915733 7.202133-63.249067 19.626667-10.3424 6.007467-17.749333 12.117333-22.152533 17.2032-1.262933 1.365333-2.321067 2.901333-3.208534 4.539733v479.0272c0 22.1184-17.92 40.0384-40.0384 40.0384s-40.0384-17.92-40.0384-40.0384V199.816533c0-23.210667 11.127467-42.1888 22.698667-55.569066 12.219733-13.6192 26.624-25.122133 42.564267-34.0992 30.344533-17.646933 69.393067-30.446933 103.389866-30.446934h151.688534c31.8464 0 62.395733 12.663467 84.923733 35.191467s35.191467 53.077333 35.191467 84.923733v560.401067c0 66.321067-53.76 120.1152-120.1152 120.1152h-151.688534c-23.688533 0-46.865067 7.031467-66.594133 20.1728l-79.735467 53.1456a39.97696 39.97696 0 0 1-44.407466 0l-79.735467-53.1456a120.190293 120.190293 0 0 0-66.628267-20.1728H196.881067c-66.321067 0-120.081067-53.76-120.081067-120.081067V199.7824c0-66.321067 53.794133-120.081067 120.1152-120.081067h151.6544c39.492267 0 78.097067 11.707733 111.0016 33.621334 18.0224 12.3904 22.7328 36.9664 10.581333 55.159466-12.117333 18.193067-36.625067 23.278933-54.9888 11.434667a120.190293 120.190293 0 0 0-66.628266-20.1728H196.9152z" fill="#15417F" p-id="16591"></path><path d="M223.573333 389.563733c0-22.493867 17.5104-40.789333 39.150934-40.789333h117.418666c21.640533 0 39.150933 18.261333 39.150934 40.789333 0 22.493867-17.5104 40.7552-39.150934 40.7552h-117.418666c-21.640533 0-39.150933-18.261333-39.150934-40.7552z m39.1168 163.054934c0-10.820267 4.130133-21.1968 11.4688-28.808534 7.338667-7.645867 17.3056-11.946667 27.682134-11.946666h78.267733c21.640533 0 39.150933 18.261333 39.150933 40.7552s-17.5104 40.789333-39.150933 40.789333H301.841067c-21.6064 0-39.150933-18.261333-39.150934-40.789333z" fill="#15417F" p-id="16592"></path></svg>